<?xml version="1.0" standalone="no"?>
<!DOCTYPE svg PUBLIC "-//W3C//DTD SVG 20010904//EN"
 "http://www.w3.org/TR/2001/REC-SVG-20010904/DTD/svg10.dtd">
<svg version="1.0" xmlns="http://www.w3.org/2000/svg"
 width="260.000000pt" height="260.000000pt" viewBox="0 0 260.000000 260.000000"
 preserveAspectRatio="xMidYMid meet">
<metadata>
Created by potrace 1.11, written by Peter Selinger 2001-2013
</metadata>
<g transform="translate(0.000000,260.000000) scale(0.100000,-0.100000)"
fill="#000000" stroke="none">
<path d="M1135 2574 c-129 -19 -307 -74 -414 -128 -333 -169 -566 -465 -669
-846 -23 -86 -25 -114 -26 -290 -1 -214 8 -275 66 -440 112 -318 358 -589 663
-731 107 -50 187 -75 319 -100 95 -19 134 -21 271 -16 227 8 401 55 580 158
322 185 527 455 622 819 34 132 43 363 19 505 -19 111 -72 279 -118 370 -146
288 -409 522 -708 629 -150 55 -224 67 -405 71 -93 2 -183 1 -200 -1z m915
-1211 l0 -488 -750 0 -750 0 0 488 0 487 750 0 750 0 0 -487z"/>
<path d="M1225 1754 c-141 -77 -152 -252 -21 -329 157 -92 347 76 264 234 -36
69 -86 104 -156 108 -39 2 -66 -2 -87 -13z"/>
<path d="M1180 1344 c-115 -31 -231 -128 -285 -238 -33 -67 -44 -134 -24 -147
18 -11 840 -11 858 0 37 23 -19 167 -99 253 -115 126 -286 176 -450 132z m110
-60 c-8 -1 -37 -6 -63 -9 -43 -6 -47 -8 -35 -23 12 -16 11 -16 -7 -2 -11 8
-22 15 -24 17 -9 5 68 21 104 21 22 0 33 -2 25 -4z m115 -7 c39 -7 65 -19 65
-29 0 -6 -6 -6 -15 2 -8 7 -22 10 -30 6 -10 -4 -14 -2 -9 5 7 13 -37 2 -46
-11 -3 -4 -14 -4 -25 1 -19 7 -19 8 3 8 12 1 22 5 22 10 0 5 -10 12 -22 14
-13 2 -9 3 7 1 17 -2 39 -5 50 -7z m-98 -13 c-3 -3 -12 -4 -19 -1 -8 3 -5 6 6
6 11 1 17 -2 13 -5z m-70 -10 c-3 -3 -12 -4 -19 -1 -8 3 -5 6 6 6 11 1 17 -2
13 -5z m-120 -19 c0 -8 -4 -12 -9 -9 -4 3 -21 -4 -36 -16 l-27 -22 25 4 c14 1
29 8 33 13 5 6 7 3 4 -6 -3 -9 -1 -21 5 -27 13 -13 -4 -10 -42 5 -14 7 -29 7
-34 2 -13 -12 -18 -52 -6 -44 6 4 7 -1 3 -11 -5 -14 -8 -13 -19 7 -7 13 -10
27 -7 32 5 8 102 87 107 87 2 0 3 -7 3 -15z m377 -10 c-4 -8 -11 -12 -17 -8
-8 5 -7 8 1 11 7 2 9 9 6 14 -4 7 -2 8 4 4 6 -4 9 -13 6 -21z m-41 2 c3 -8 2
-20 -3 -26 -5 -9 -7 -4 -7 13 0 29 2 32 10 13z m137 -63 c0 -3 -10 2 -21 10
-23 15 -53 11 -42 -7 3 -6 1 -7 -6 -3 -6 4 -8 12 -5 18 5 8 1 9 -10 5 -10 -4
-15 -3 -11 4 4 5 16 7 28 3 l22 -7 -20 24 c-14 16 -7 13 23 -10 23 -18 42 -35
42 -37z m-117 21 c-3 -9 -8 -14 -10 -11 -3 3 -2 9 2 15 9 16 15 13 8 -4z
m-478 -55 c-3 -5 -1 -10 4 -10 6 0 11 -5 11 -11 0 -8 -5 -8 -15 1 -13 11 -12
30 1 30 3 0 2 -4 -1 -10z m585 -31 c0 -14 -17 -10 -23 5 -4 10 -1 13 9 9 7 -3
14 -9 14 -14z m-596 -5 c3 -8 2 -12 -4 -9 -12 8 -34 -35 -23 -46 5 -5 168 -10
363 -12 l355 -2 -375 -2 c-206 -1 -369 1 -362 4 6 2 10 9 7 14 -5 8 21 69 29
69 2 0 7 -7 10 -16z m661 -15 c9 -17 14 -33 11 -37 -3 -3 -6 0 -6 7 0 7 -5 9
-12 5 -8 -5 -9 -2 -5 10 5 12 3 16 -5 13 -7 -2 -12 -11 -12 -20 1 -9 -2 -14
-7 -12 -6 4 -6 49 0 63 5 11 23 -3 36 -29z m-620 11 c-3 -5 -12 -10 -18 -10
-7 0 -6 4 3 10 19 12 23 12 15 0z"/>
<path d="M1610 1089 c0 -5 5 -7 10 -4 6 3 10 8 10 11 0 2 -4 4 -10 4 -5 0 -10
-5 -10 -11z"/>
</g>
</svg>
